# Blender v2.79 (sub 0) OBJ File: '3B.blend'
# www.blender.org
mtllib 3B.mtl
o plat1_Cube.002
v 4.784854 1.001952 8.377280
v 4.784854 1.370617 8.377280
v 4.784854 1.001952 -9.436711
v 4.784854 1.370617 -9.436711
v -5.170571 1.001952 8.377280
v -5.170571 1.370617 8.377280
v -5.170571 1.001952 -9.436711
v -5.170571 1.370617 -9.436711
vt 2.216245 1.904018
vt 2.153845 1.904018
vt 2.153845 -1.278645
vt 2.216244 -1.278645
vt 2.216245 0.500000
vt 2.278645 0.500000
vt 2.278645 2.278645
vt 2.216245 2.278645
vt 2.153845 1.904018
vt 2.091444 1.904018
vt 2.091444 -1.278645
vt 2.153843 -1.278645
vt 2.278645 0.500000
vt 2.216245 0.500000
vt 2.216245 -1.278645
vt 2.278645 -1.278645
vt 0.406399 1.904018
vt -1.278645 1.904018
vt -1.278645 -1.278645
vt 0.406399 -1.278645
vt 0.406399 -1.278645
vt 2.091444 -1.278645
vt 2.091444 1.904018
vt 0.406399 1.904018
vn -1.0000 0.0000 0.0000
vn 0.0000 0.0000 1.0000
vn 1.0000 0.0000 0.0000
vn 0.0000 0.0000 -1.0000
vn 0.0000 1.0000 0.0000
vn 0.0000 -1.0000 0.0000
usemtl None
s off
f 1/1/1 2/2/1 4/3/1 3/4/1
f 3/5/2 4/6/2 8/7/2 7/8/2
f 7/9/3 8/10/3 6/11/3 5/12/3
f 5/13/4 6/14/4 2/15/4 1/16/4
f 3/17/5 7/18/5 5/19/5 1/20/5
f 8/21/6 4/22/6 2/23/6 6/24/6
o bridge1_Cube.005
v -0.425801 1.001952 -13.272243
v -0.425801 1.370617 -13.272243
v -0.425801 1.001952 -27.632915
v -0.425801 1.370617 -27.632915
v 0.124006 1.001952 -13.272243
v 0.124006 1.370617 -13.272243
v 0.124006 1.001952 -27.632915
v 0.124006 1.370617 -27.632915
v 4.255682 1.001955 -9.821454
v 4.255682 1.370620 -9.821454
v 4.255682 1.001955 -27.635445
v 4.255682 1.370620 -27.635445
v 4.805489 1.001955 -9.821454
v 4.805489 1.370620 -9.821454
v 4.805489 1.001955 -27.635445
v 4.805489 1.370620 -27.635445
v 1.931932 1.001954 -13.272246
v 1.931932 1.370619 -13.272246
v 1.931932 1.001954 -27.632915
v 1.931932 1.370619 -27.632915
v 2.481738 1.001954 -13.272246
v 2.481738 1.370619 -13.272246
v 2.481738 1.001954 -27.632915
v 2.481738 1.370619 -27.632915
v -2.752421 1.001951 -13.272246
v -2.752421 1.370616 -13.272246
v -2.752421 1.001951 -27.632915
v -2.752421 1.370616 -27.632915
v -2.202615 1.001951 -13.272246
v -2.202615 1.370616 -13.272246
v -2.202615 1.001951 -27.632915
v -2.202615 1.370616 -27.632915
v -1.968467 0.997488 -27.628592
v -1.968467 1.366153 -27.628592
v -0.544134 0.997489 -27.605505
v -0.544134 1.366154 -27.605505
v -1.977375 0.997488 -27.078979
v -1.977375 1.366153 -27.078979
v -0.553042 0.997489 -27.055893
v -0.553042 1.366154 -27.055893
v 2.691506 0.997490 -27.628592
v 2.691506 1.366155 -27.628592
v 4.115839 0.997491 -27.605505
v 4.115839 1.366156 -27.605505
v 2.682598 0.997490 -27.078979
v 2.682598 1.366155 -27.078979
v 4.106931 0.997491 -27.055893
v 4.106931 1.366156 -27.055893
v 0.323707 0.997489 -14.001932
v 0.323707 1.366154 -14.001932
v 1.748040 0.997490 -13.978847
v 1.748040 1.366155 -13.978847
v 0.314799 0.997489 -13.452320
v 0.314799 1.366154 -13.452320
v 1.739132 0.997490 -13.429234
v 1.739132 1.366155 -13.429234
v -4.411866 0.997486 -13.948021
v -4.411866 1.366151 -13.948021
v -2.987533 0.997487 -13.924934
v -2.987533 1.366152 -13.924934
v -4.420774 0.997486 -13.398408
v -4.420774 1.366151 -13.398408
v -2.996441 0.997487 -13.375321
v -2.996441 1.366152 -13.375321
v -5.363675 1.001950 -13.470790
v -5.363675 1.370615 -13.470790
v -5.363675 1.001950 -31.284781
v -5.363675 1.370615 -31.284781
v -4.813868 1.001950 -13.470790
v -4.813868 1.370615 -13.470790
v -4.813868 1.001950 -31.284781
v -4.813868 1.370615 -31.284781
vt 1.001689 1.366578
vt 0.905419 1.366578
vt 0.905418 -0.915399
vt 1.001689 -0.915399
vt 1.819129 0.287908
vt 1.722858 0.287908
vt 1.722858 0.200541
vt 1.819129 0.200541
vt 1.194232 1.366578
vt 1.097961 1.366578
vt 1.097961 -0.915399
vt 1.194232 -0.915399
vt 1.819129 -0.061560
vt 1.722858 -0.061560
vt 1.722858 -0.148926
vt 1.819129 -0.148926
vt 0.233187 -0.915399
vt 0.376760 -0.915399
vt 0.376760 1.366637
vt 0.233187 1.366637
vt -0.197533 -0.915399
vt -0.053960 -0.915399
vt -0.053960 1.366637
vt -0.197533 1.366637
vt 0.616605 1.915326
vt 0.520334 1.915326
vt 0.520333 -0.915399
vt 0.616604 -0.915399
vt 1.819129 0.375274
vt 1.722858 0.375274
vt 1.722858 0.287908
vt 1.819129 0.287908
vt 0.712876 1.915326
vt 0.616605 1.915326
vt 0.616605 -0.915399
vt 0.712876 -0.915399
vt 1.722858 0.375274
vt 1.819129 0.375274
vt 1.819128 0.462641
vt 1.722858 0.462641
vt -0.341106 1.915399
vt -0.484680 1.915399
vt -0.484679 -0.915399
vt -0.341107 -0.915399
vt -0.771826 -0.915399
vt -0.628253 -0.915399
vt -0.628253 1.915399
vt -0.771826 1.915399
vt 1.386774 1.366578
vt 1.290503 1.366578
vt 1.290503 -0.915399
vt 1.386774 -0.915399
vt 1.722858 0.550008
vt 1.819129 0.550008
vt 1.819129 0.637375
vt 1.722858 0.637375
vt 1.290503 1.366577
vt 1.194232 1.366577
vt 1.194232 -0.915399
vt 1.290503 -0.915399
vt 1.722858 0.113174
vt 1.819129 0.113174
vt 1.819129 0.200541
vt 1.722858 0.200541
vt -0.341106 -0.915399
vt -0.197533 -0.915399
vt -0.197533 1.366637
vt -0.341106 1.366637
vt 0.089614 -0.915399
vt 0.233187 -0.915399
vt 0.233187 1.366637
vt 0.089614 1.366637
vt 1.097961 1.366578
vt 1.001690 1.366578
vt 1.001689 -0.915399
vt 1.097960 -0.915399
vt 1.819129 0.550008
vt 1.722858 0.550008
vt 1.722858 0.462641
vt 1.819129 0.462641
vt 1.386774 -0.915399
vt 1.483045 -0.915399
vt 1.483045 1.366577
vt 1.386774 1.366578
vt 1.722858 0.025807
vt 1.819129 0.025807
vt 1.819129 0.113174
vt 1.722858 0.113174
vt 0.376761 -0.915399
vt 0.520333 -0.915399
vt 0.520333 1.366637
vt 0.376760 1.366637
vt -0.053960 -0.915399
vt 0.089613 -0.915399
vt 0.089614 1.366637
vt -0.053959 1.366637
vt 1.722858 0.442803
vt 1.626587 0.442803
vt 1.626587 0.216444
vt 1.722857 0.216444
vt 1.915400 -0.514338
vt 1.819129 -0.514338
vt 1.819129 -0.601684
vt 1.915400 -0.601684
vt 1.819129 -0.236312
vt 1.722858 -0.236312
vt 1.722858 -0.462671
vt 1.819129 -0.462671
vt 1.915400 -0.601684
vt 1.819129 -0.601684
vt 1.819129 -0.689031
vt 1.915400 -0.689031
vt 1.626587 -0.915399
vt 1.770128 -0.915399
vt 1.770128 -0.689031
vt 1.626587 -0.689031
vt 1.626587 0.216444
vt 1.483045 0.216444
vt 1.483045 -0.009925
vt 1.626587 -0.009925
vt 1.626587 -0.462671
vt 1.722858 -0.462671
vt 1.722858 -0.236312
vt 1.626587 -0.236312
vt 1.722858 0.756518
vt 1.626587 0.756518
vt 1.626587 0.669172
vt 1.722858 0.669172
vt 1.626587 0.442813
vt 1.722858 0.442813
vt 1.819129 -0.514338
vt 1.915400 -0.514338
vt 1.915400 -0.426992
vt 1.819129 -0.426992
vt 1.626586 0.669181
vt 1.483045 0.669181
vt 1.483045 0.442813
vt 1.626586 0.442813
vt 1.483045 -0.915399
vt 1.626587 -0.915399
vt 1.626587 -0.689031
vt 1.483045 -0.689031
vt 1.819129 -0.462671
vt 1.722858 -0.462671
vt 1.722858 -0.689031
vt 1.819129 -0.689031
vt 1.866399 -0.740707
vt 1.770128 -0.740707
vt 1.770128 -0.828053
vt 1.866399 -0.828053
vt 1.626587 -0.009925
vt 1.722858 -0.009925
vt 1.722858 0.216435
vt 1.626587 0.216435
vt 1.819129 0.724721
vt 1.722858 0.724721
vt 1.722858 0.637375
vt 1.819129 0.637375
vt 1.626586 0.442813
vt 1.483045 0.442813
vt 1.483045 0.216444
vt 1.626587 0.216444
vt 1.626587 -0.236293
vt 1.483045 -0.236293
vt 1.483045 -0.462662
vt 1.626587 -0.462662
vt 1.722858 -0.009934
vt 1.626587 -0.009934
vt 1.626587 -0.236293
vt 1.722858 -0.236293
vt 1.866399 -0.828053
vt 1.770128 -0.828053
vt 1.770128 -0.915399
vt 1.866399 -0.915399
vt 1.722858 -0.462671
vt 1.626587 -0.462671
vt 1.626587 -0.689031
vt 1.722858 -0.689031
vt 1.483045 0.669181
vt 1.579316 0.669181
vt 1.579316 0.756528
vt 1.483045 0.756528
vt 1.483045 -0.689031
vt 1.626587 -0.689031
vt 1.626586 -0.462662
vt 1.483045 -0.462662
vt 1.483045 -0.236293
vt 1.483045 -0.009925
vt 0.809147 -0.915399
vt 0.905418 -0.915399
vt 0.905418 1.915326
vt 0.809147 1.915326
vt 1.819129 0.025807
vt 1.722858 0.025807
vt 1.722858 -0.061560
vt 1.819129 -0.061560
vt 0.809147 1.915326
vt 0.712876 1.915326
vt 0.712876 -0.915399
vt 0.809147 -0.915399
vt 1.722858 -0.236293
vt 1.819128 -0.236293
vt 1.819129 -0.148926
vt 1.722858 -0.148927
vt -0.628253 -0.915399
vt -0.484680 -0.915399
vt -0.484680 1.915399
vt -0.628253 1.915399
vt -0.915400 -0.915399
vt -0.771827 -0.915399
vt -0.771826 1.915399
vt -0.915399 1.915399
vn -1.0000 0.0000 0.0000
vn 0.0000 0.0000 -1.0000
vn 1.0000 0.0000 0.0000
vn 0.0000 0.0000 1.0000
vn 0.0000 -1.0000 0.0000
vn 0.0000 1.0000 0.0000
vn 0.0162 0.0000 -0.9999
vn 0.9999 0.0000 0.0162
vn -0.0162 0.0000 0.9999
vn -0.9999 0.0000 -0.0162
usemtl None
s off
f 9/25/7 10/26/7 12/27/7 11/28/7
f 11/29/8 12/30/8 16/31/8 15/32/8
f 15/33/9 16/34/9 14/35/9 13/36/9
f 13/37/10 14/38/10 10/39/10 9/40/10
f 11/41/11 15/42/11 13/43/11 9/44/11
f 16/45/12 12/46/12 10/47/12 14/48/12
f 17/49/7 18/50/7 20/51/7 19/52/7
f 19/53/8 20/54/8 24/55/8 23/56/8
f 23/57/9 24/58/9 22/59/9 21/60/9
f 21/61/10 22/62/10 18/63/10 17/64/10
f 19/65/11 23/66/11 21/67/11 17/68/11
f 24/69/12 20/70/12 18/71/12 22/72/12
f 25/73/7 26/74/7 28/75/7 27/76/7
f 27/77/8 28/78/8 32/79/8 31/80/8
f 31/81/9 32/82/9 30/83/9 29/84/9
f 29/85/10 30/86/10 26/87/10 25/88/10
f 27/89/11 31/90/11 29/91/11 25/92/11
f 32/93/12 28/94/12 26/95/12 30/96/12
f 33/97/7 34/98/7 36/99/7 35/100/7
f 35/101/8 36/102/8 40/103/8 39/104/8
f 39/105/9 40/106/9 38/107/9 37/108/9
f 37/109/10 38/110/10 34/111/10 33/112/10
f 35/113/11 39/114/11 37/115/11 33/116/11
f 40/117/12 36/118/12 34/119/12 38/120/12
f 41/121/13 42/122/13 44/123/13 43/124/13
f 43/125/14 44/126/14 48/127/14 47/128/14
f 47/129/15 48/130/15 46/131/15 45/132/15
f 45/133/16 46/134/16 42/135/16 41/136/16
f 43/137/11 47/138/11 45/139/11 41/140/11
f 48/141/12 44/142/12 42/143/12 46/144/12
f 49/145/13 50/146/13 52/147/13 51/148/13
f 51/149/14 52/150/14 56/151/14 55/152/14
f 55/152/15 56/151/15 54/153/15 53/154/15
f 53/155/16 54/156/16 50/157/16 49/158/16
f 51/159/11 55/160/11 53/161/11 49/162/11
f 56/163/12 52/164/12 50/165/12 54/166/12
f 57/167/13 58/168/13 60/169/13 59/170/13
f 59/171/14 60/172/14 64/173/14 63/174/14
f 63/175/15 64/176/15 62/177/15 61/178/15
f 61/179/16 62/180/16 58/181/16 57/182/16
f 59/183/11 63/184/11 61/185/11 57/186/11
f 64/187/12 60/188/12 58/189/12 62/190/12
f 65/191/13 66/192/13 68/193/13 67/194/13
f 67/195/14 68/196/14 72/197/14 71/198/14
f 71/199/15 72/200/15 70/201/15 69/202/15
f 69/203/16 70/204/16 66/205/16 65/206/16
f 67/207/11 71/208/11 69/209/11 65/210/11
f 72/211/12 68/193/12 66/192/12 70/212/12
f 73/213/7 74/214/7 76/215/7 75/216/7
f 75/217/8 76/218/8 80/219/8 79/220/8
f 79/221/9 80/222/9 78/223/9 77/224/9
f 77/225/10 78/226/10 74/227/10 73/228/10
f 75/229/11 79/230/11 77/231/11 73/232/11
f 80/233/12 76/234/12 74/235/12 78/236/12
o bridge2_Cube.022
v 1.931932 1.001952 -53.958652
v 1.931932 1.370617 -53.958652
v 1.931932 1.001952 -68.319321
v 1.931932 1.370617 -68.319321
v 2.481738 1.001952 -53.958652
v 2.481738 1.370617 -53.958652
v 2.481738 1.001952 -68.319321
v 2.481738 1.370617 -68.319321
v 2.691506 0.997488 -68.314995
v 2.691506 1.366153 -68.314995
v 4.115839 0.997488 -68.291908
v 4.115839 1.366153 -68.291908
v 2.682598 0.997488 -67.765381
v 2.682598 1.366153 -67.765381
v 4.106931 0.997488 -67.742294
v 4.106931 1.366153 -67.742294
v 4.255683 1.001952 -50.507854
v 4.255683 1.370617 -50.507854
v 4.255683 1.001952 -68.321846
v 4.255683 1.370617 -68.321846
v 4.805490 1.001952 -50.507854
v 4.805490 1.370617 -50.507854
v 4.805490 1.001952 -68.321846
v 4.805490 1.370617 -68.321846
vt 0.671503 2.504723
vt 0.566874 2.504723
vt 0.566874 -1.482046
vt 0.671503 -1.482046
vt 0.671503 -1.329410
vt 0.776132 -1.329410
vt 0.776132 -1.176775
vt 0.671503 -1.176775
vt 0.566874 2.504723
vt 0.462245 2.504723
vt 0.462244 -1.482046
vt 0.566872 -1.482046
vt 0.671503 -1.482046
vt 0.776132 -1.482046
vt 0.776132 -1.329410
vt 0.671503 -1.329410
vt 0.150168 -1.482046
vt 0.306205 -1.482046
vt 0.306205 2.504722
vt 0.150167 2.504722
vt 0.306205 2.504722
vt 0.306206 -1.482046
vt 1.125513 1.476183
vt 1.125513 1.356927
vt 0.664714 1.356927
vt 0.664714 1.476183
vt 0.073955 1.476183
vt 0.073955 1.356927
vt -0.103857 1.356927
vt -0.103857 1.476183
vt 0.664714 1.476183
vt 0.664714 1.356927
vt 1.125513 1.356927
vt 1.125513 1.476183
vt -0.103857 1.476183
vt -0.103857 1.356927
vt 0.073955 1.356927
vt 0.073955 1.476183
vt 0.073955 -0.908453
vt -0.103857 -0.908453
vt -0.103857 -0.447655
vt 0.073955 -0.447655
vt -0.103857 -0.908453
vt 0.073955 -0.908453
vt 0.073955 -0.447655
vt -0.103857 -0.447655
vt 0.719489 3.330834
vt 0.609268 3.330834
vt 0.609268 -2.330834
vt 0.719489 -2.330834
vt 0.829710 -1.981353
vt 0.719489 -1.981353
vt 0.719489 -2.156094
vt 0.829710 -2.156094
vt 0.609268 3.330834
vt 0.499047 3.330834
vt 0.499045 -2.330834
vt 0.609266 -2.330834
vt 0.719489 -2.330834
vt 0.829710 -2.330834
vt 0.829710 -2.156094
vt 0.719489 -2.156094
vt 0.170290 -2.330834
vt 0.334667 -2.330834
vt 0.334667 3.330833
vt 0.170290 3.330833
vt 0.334667 3.330833
vt 0.334668 -2.330834
vn -1.0000 0.0000 0.0000
vn 0.0000 0.0000 -1.0000
vn 1.0000 0.0000 0.0000
vn 0.0000 0.0000 1.0000
vn 0.0000 -1.0000 0.0000
vn 0.0000 1.0000 0.0000
vn 0.0162 0.0000 -0.9999
vn 0.9999 0.0000 0.0162
vn -0.0162 0.0000 0.9999
vn -0.9999 0.0000 -0.0162
usemtl None
s off
f 81/237/17 82/238/17 84/239/17 83/240/17
f 83/241/18 84/242/18 88/243/18 87/244/18
f 87/245/19 88/246/19 86/247/19 85/248/19
f 85/249/20 86/250/20 82/251/20 81/252/20
f 83/253/21 87/254/21 85/255/21 81/256/21
f 88/246/22 84/257/22 82/258/22 86/247/22
f 89/259/23 90/260/23 92/261/23 91/262/23
f 91/263/24 92/264/24 96/265/24 95/266/24
f 95/267/25 96/268/25 94/269/25 93/270/25
f 93/271/26 94/272/26 90/273/26 89/274/26
f 91/275/21 95/276/21 93/277/21 89/278/21
f 96/279/22 92/280/22 90/281/22 94/282/22
f 97/283/17 98/284/17 100/285/17 99/286/17
f 99/287/18 100/288/18 104/289/18 103/290/18
f 103/291/19 104/292/19 102/293/19 101/294/19
f 101/295/20 102/296/20 98/297/20 97/298/20
f 99/299/21 103/300/21 101/301/21 97/302/21
f 104/292/22 100/303/22 98/304/22 102/293/22
o end_Cube.024
v 2.230547 -2.629167 -56.345062
v 2.230547 -2.260502 -56.345062
v 2.230547 -2.629167 -51.635445
v 2.230547 -2.260502 -51.635445
v -3.325216 -2.629167 -56.345062
v -3.325216 -2.260502 -56.345062
v -3.325216 -2.629167 -51.635445
v -3.325216 -2.260502 -51.635445
vt -0.690117 1.783279
vt -0.783279 1.783279
vt -0.783279 0.605777
vt -0.690118 0.605777
vt 1.690117 -0.783279
vt 1.783279 -0.783279
vt 1.783279 0.605777
vt 1.690118 0.605777
vt -0.596956 1.783279
vt -0.690117 1.783279
vt -0.690117 0.605777
vt -0.596956 0.605777
vt 1.690117 0.605777
vt 1.596956 0.605777
vt 1.596956 -0.783279
vt 1.690117 -0.783279
vt 0.406839 0.605777
vt 0.406838 -0.783279
vt 1.596956 -0.783279
vt 1.596956 0.605777
vt 0.406838 -0.783279
vt 0.406838 0.605777
vt -0.783279 0.605777
vt -0.783279 -0.783279
vn 1.0000 0.0000 0.0000
vn 0.0000 0.0000 1.0000
vn -1.0000 0.0000 0.0000
vn 0.0000 0.0000 -1.0000
vn 0.0000 -1.0000 0.0000
vn 0.0000 1.0000 0.0000
usemtl None
s off
f 105/305/27 106/306/27 108/307/27 107/308/27
f 107/309/28 108/310/28 112/311/28 111/312/28
f 111/313/29 112/314/29 110/315/29 109/316/29
f 109/317/30 110/318/30 106/319/30 105/320/30
f 107/321/31 111/322/31 109/323/31 105/324/31
f 112/325/32 108/326/32 106/327/32 110/328/32
o plat2_Cube.025
v 4.101192 2.607661 -49.030350
v 4.101192 1.210999 -49.030350
v 4.101192 2.607661 -49.633812
v 4.101192 1.210999 -49.633812
v -5.121155 2.607661 -49.030350
v -5.121155 1.210999 -49.030350
v -5.121155 2.607661 -49.633812
v -5.121155 1.210999 -49.633812
v 4.784854 1.001951 -31.907963
v 4.784854 1.370616 -31.907963
v 4.784854 1.001951 -49.721954
v 4.784854 1.370616 -49.721954
v -5.170571 1.001951 -31.907963
v -5.170571 1.370616 -31.907963
v -5.170571 1.001951 -49.721954
v -5.170571 1.370616 -49.721954
vt -1.596622 2.713907
vt -1.596622 2.391994
vt -1.479337 2.391994
vt -1.479337 2.713907
vt 2.155851 0.411728
vt 2.427299 0.411728
vt 2.427299 2.537364
vt 2.155852 2.537364
vt -1.596622 2.391994
vt -1.596622 2.713907
vt -1.713907 2.713907
vt -1.713907 2.391994
vt 2.427299 0.411728
vt 2.155852 0.411728
vt 2.155851 -1.713907
vt 2.427299 -1.713907
vt 2.687889 -1.713907
vt 2.687889 0.411728
vt 2.570604 0.411728
vt 2.570604 -1.713907
vt 2.498950 -1.713907
vt 2.498951 2.391995
vt 2.427300 2.391995
vt 2.427299 -1.713907
vt 2.713907 0.411728
vt 2.713907 2.706329
vt 2.642256 2.706329
vt 2.642256 0.411728
vt 2.570603 -1.713907
vt 2.570604 2.391995
vt 2.498952 2.391995
vt 2.498951 -1.713907
vt 2.570604 2.706329
vt 2.570604 0.411728
vt 2.642255 0.411728
vt 2.642256 2.706329
vt 2.155851 -1.713907
vt 2.155851 2.391995
vt 0.220972 2.391994
vt 0.220972 -1.713907
vt -1.713907 2.391994
vt -1.713907 -1.713907
vt 0.220972 -1.713907
vt 0.220972 2.391994
vn 1.0000 0.0000 0.0000
vn 0.0000 0.0000 -1.0000
vn -1.0000 0.0000 0.0000
vn 0.0000 0.0000 1.0000
vn 0.0000 1.0000 0.0000
vn 0.0000 -1.0000 -0.0000
usemtl None
s off
f 113/329/33 114/330/33 116/331/33 115/332/33
f 115/333/34 116/334/34 120/335/34 119/336/34
f 119/337/35 120/338/35 118/339/35 117/340/35
f 117/341/36 118/342/36 114/343/36 113/344/36
f 115/345/37 119/346/37 117/347/37 113/348/37
f 121/349/33 123/350/33 124/351/33 122/352/33
f 123/353/34 127/354/34 128/355/34 124/356/34
f 127/357/35 125/358/35 126/359/35 128/360/35
f 125/361/36 121/362/36 122/363/36 126/364/36
f 123/365/38 121/366/38 125/367/38 127/368/38
f 128/369/37 126/370/37 122/371/37 124/372/37
